# xmcd CD database file
#
# Track frame offsets:
#	150
#	20776
#	33921
#	51581
#	62274
#	77964
#	96689
#	104157
#	124580
#	145619
#
# Disc length: 2048 seconds
#
# Revision: 3
# Processed by: cddbd v1.5.2PL0 Copyright (c) Steve Scherf et al.
# Submitted via: CDex 1.50Beta3
#
DISCID=8f07fe0a
DTITLE=Almir Sater - Instrumental Dois
DYEAR=1995
DGENRE=Instrumental
TTITLE0=Fronteira
TTITLE1=Europa
TTITLE2=Rasta
TTITLE3=Mazurca-Choro
TTITLE4=Encontro das Águas
TTITLE5=Moura
TTITLE6=Marionete
TTITLE7=Segredo
TTITLE8=Cristal
TTITLE9=Beira-Mar
EXTD=YEAR: 1995
EXTT0=
EXTT1=
EXTT2=
EXTT3=
EXTT4=
EXTT5=
EXTT6=
EXTT7=
EXTT8=
EXTT9=
PLAYORDER=
